<svg xmlns="http://www.w3.org/2000/svg" width="16" height="16" viewBox="0 0 16 16">
  <g fill-rule="nonzero">
    <path d="M2 13.993c0 .003 3.998.005 11.993.007.003 0 .005-3.998.007-11.993 0-.003-3.998-.005-11.993-.007C2.004 2 2.002 5.998 2 13.993zM1 2.007C1 1.45 1.45 1 2.007 1h11.986C14.55 1 15 1.45 15 2.007v11.986C15 14.55 14.55 15 13.993 15H2.007C1.45 15 1 14.55 1 13.993V2.007z" />
    <path d="M3.856 8.041a.49.49 0 0 0-.703-.012.515.515 0 0 0-.012.717l2.932 3.099a.49.49 0 0 0 .703.013l6.073-5.985a.515.515 0 0 0 .013-.718.49.49 0 0 0-.704-.013l-5.715 5.633L3.856 8.04z" />
  </g>
</svg>
