<svg xmlns="http://www.w3.org/2000/svg" xmlns:xlink="http://www.w3.org/1999/xlink" width="24" height="24" viewBox="0 0 24 24">
  <g fill-rule="evenodd">
    <path d="M21.74 15.11L15.62 3.89a4.12 4.12 0 0 0-7.24 0L2.26 15.11a4.12 4.12 0 0 0 3.62 6.1h12.24a4.12 4.12 0 0 0 3.62-6.1zm-1.36 3.31a2.6 2.6 0 0 1-2.26 1.28H5.88a2.62 2.62 0 0 1-2.3-3.88L9.7 4.61a2.62 2.62 0 0 1 4.61 0l6.12 11.22a2.61 2.61 0 0 1-.05 2.6v-.01zM12 13.25a.75.75 0 0 0 .75-.75v-5a.75.75 0 1 0-1.5 0v5a.75.75 0 0 0 .75.75zm0 3.5a1 1 0 1 0 0-2 1 1 0 0 0 0 2z"/>
  </g>
</svg>
