<svg xmlns="http://www.w3.org/2000/svg" xmlns:xlink="http://www.w3.org/1999/xlink" width="24" height="24" viewBox="0 0 24 24">
  <g fill-rule="evenodd">
    <path d="M12 1.75C6.34 1.75 1.75 6.34 1.75 12S6.34 22.25 12 22.25 22.25 17.66 22.25 12C22.244 6.341 17.659 1.756 12 1.75zM20.75 12A8.75 8.75 0 1 1 12 3.25 8.76 8.76 0 0 1 20.75 12zm-5.038 2.652L13.061 12l2.651-2.652a.75.75 0 0 0-1.06-1.06L12 10.939 9.348 8.288a.75.75 0 1 0-1.06 1.06L10.939 12l-2.651 2.652a.75.75 0 0 0 1.06 1.06L12 13.061l2.652 2.651a.75.75 0 0 0 1.06-1.06z"/>
  </g>
</svg>
