<svg viewBox="0 0 128 128">
  <g class="iconic-social-twitter">
    <path d="M40.255 104c-14.83 0-28.634-4.346-40.255-11.796 2.054.242 4.145.366 6.264.366 12.303 0 23.627-4.197 32.614-11.239-11.491-.212-21.19-7.803-24.531-18.234 1.603.307 3.248.471 4.94.471 2.395 0 4.715-.321 6.919-.921-12.014-2.412-21.065-13.023-21.065-25.744 0-.111 0-.221.002-.33 3.541 1.966 7.59 3.147 11.895 3.284-7.046-4.708-11.683-12.744-11.683-21.853 0-4.811 1.295-9.322 3.555-13.199 12.952 15.884 32.302 26.337 54.128 27.432-.448-1.921-.68-3.925-.68-5.983 0-14.499 11.758-26.254 26.262-26.254 7.553 0 14.378 3.189 19.168 8.291 5.982-1.178 11.602-3.363 16.676-6.371-1.961 6.131-6.125 11.276-11.547 14.525 5.312-.635 10.373-2.046 15.083-4.134-3.521 5.265-7.973 9.889-13.104 13.591.051 1.126.076 2.258.076 3.397 0 34.695-26.414 74.701-74.717 74.701" class="iconic-property-fill"></path>
  </g>
</svg>