<svg viewBox="0 0 128 128">
  <g class="iconic-social-facebook">
    <path d="M120.936 0h-113.871c-3.903 0-7.065 3.162-7.065 7.065v113.871c0 3.901 3.162 7.065 7.065 7.065h61.304v-49.568h-16.681v-19.318h16.681v-14.246c0-16.533 10.097-25.535 24.846-25.535 7.064 0 13.136.526 14.906.761v17.278l-10.229.005c-8.021 0-9.574 3.812-9.574 9.405v12.333h19.129l-2.491 19.318h-16.638v49.568h32.618c3.901 0 7.064-3.163 7.064-7.065v-113.871c0-3.902-3.163-7.065-7.064-7.065z" class="iconic-property-fill">
    </path>
  </g>
</svg>